<?xml version="1.0" encoding="UTF-8"?>
<svg id="Layer_1" xmlns="http://www.w3.org/2000/svg" version="1.1" viewBox="0 0 48 46">
  <!-- Generator: Adobe Illustrator 30.5.0, SVG Export Plug-In . SVG Version: 2.1.3 Build 41)  -->
  <defs>
    <style>
      .st0 {
        fill: #069f5a;
      }
    </style>
  </defs>
  <path class="st0" d="M33.2,33.5c3.4-9.5-9.5-15.6-7.2-22,.7-1.8,2-2.8,4.1-2.8,3.2,0,6.4,2.6,7.7,8l4-10.9c-2.6-2.4-5.4-3.6-10.5-3.6s-12.3,3.1-14.6,9.4c-3.7,10.1,9,16.4,6.9,22.2-.8,2.1-2.3,3-4.6,3s-6.8-3.4-8.5-8.8l-4.2,11.6c2.5,2.9,6.2,3.8,10.5,3.8,8.2,0,13.9-3.2,16.4-10.1h0Z"/>
</svg>